<svg xmlns="http://www.w3.org/2000/svg" width="21" height="21" viewBox="0 0 21 21">
  <metadata><?xpacket begin="﻿" id="W5M0MpCehiHzreSzNTczkc9d"?>
<x:xmpmeta xmlns:x="adobe:ns:meta/" x:xmptk="Adobe XMP Core 5.6-c142 79.160924, 2017/07/13-01:06:39        ">
   <rdf:RDF xmlns:rdf="http://www.w3.org/1999/02/22-rdf-syntax-ns#">
      <rdf:Description rdf:about=""/>
   </rdf:RDF>
</x:xmpmeta>
                                                                                                    
                                                                                                    
                                                                                                    
                                                                                                    
                                                                                                    
                                                                                                    
                                                                                                    
                                                                                                    
                                                                                                    
                                                                                                    
                                                                                                    
                                                                                                    
                                                                                                    
                                                                                                    
                                                                                                    
                                                                                                    
                                                                                                    
                                                                                                    
                                                                                                    
                                                                                                    
                           
<?xpacket end="w"?></metadata>
<defs>
    <style>
      .cls-1 {
        fill: #fff;
        fill-rule: evenodd;
      }
    </style>
  </defs>
  <path id="закрыть" class="cls-1" d="M1291.33,2375.5l9.5-9.5a0.589,0.589,0,0,0,.17-0.42,0.58,0.58,0,0,0-.58-0.58,0.59,0.59,0,0,0-.41.17l-9.51,9.5-9.5-9.5a0.61,0.61,0,0,0-.41-0.17,0.583,0.583,0,0,0-.59.58,0.635,0.635,0,0,0,.17.42l9.51,9.5-9.51,9.5a0.635,0.635,0,0,0-.17.42,0.583,0.583,0,0,0,.59.58,0.61,0.61,0,0,0,.41-0.17l9.5-9.51,9.51,9.51a0.59,0.59,0,0,0,.41.17,0.58,0.58,0,0,0,.58-0.58,0.589,0.589,0,0,0-.17-0.42Z" transform="translate(-1280 -2365)"/>
</svg>
