<svg version="1.1" id="Шар_1" xmlns="http://www.w3.org/2000/svg" xmlns:xlink="http://www.w3.org/1999/xlink" x="0px" y="0px"
	 viewBox="0 0 46.2 46.2" style="enable-background:new 0 0 46.2 46.2;" xml:space="preserve">
<style type="text/css">
	.st0{fill-rule:evenodd;clip-rule:evenodd;fill:#CCCCCC;}
</style>
<path id="Browsers" class="st0" d="M13.6,12.6c-0.6,0-1,0.5-1,1.1s0.5,1,1.1,1c0.6,0,1-0.5,1-1C14.7,13.1,14.2,12.6,13.6,12.6z
	 M32.5,12.6H17.8c-0.6,0-1,0.5-1,1.1c0,0.6,0.5,1,1,1h14.7c0.6,0,1.1-0.5,1.1-1C33.6,13.1,33.1,12.6,32.5,12.6
	C32.5,12.6,32.5,12.6,32.5,12.6z M35.7,16.8H2.1v-4.2c0-1.2,0.9-2.1,2.1-2.1h29.4c1.2,0,2.1,0.9,2.1,2.1V16.8z M35.7,42
	c0,1.2-0.9,2.1-2.1,2.1H4.2c-1.2,0-2.1-0.9-2.1-2.1V18.9h33.6V42z M33.6,8.4H4.2C1.9,8.4,0,10.3,0,12.6V42c0,2.3,1.9,4.2,4.2,4.2
	h29.4c2.3,0,4.2-1.9,4.2-4.2V12.6C37.8,10.3,35.9,8.4,33.6,8.4L33.6,8.4z M42,0H12.6c-2.3,0-4.2,1.9-4.2,4.2v1.1c0,0.6,0.5,1,1.1,1
	c0.6,0,1-0.5,1-1V4.2c0-1.2,0.9-2.1,2.1-2.1H42c1.2,0,2.1,0.9,2.1,2.1v29.4c0,1.2-0.9,2.1-2.1,2.1h-1.1c-0.6,0-1,0.5-1,1.1
	c0,0.6,0.5,1,1,1H42c2.3,0,4.2-1.9,4.2-4.2V4.2C46.2,1.9,44.3,0,42,0L42,0z M5.2,12.6c-0.6,0-1,0.5-1,1.1s0.5,1,1.1,1
	c0.6,0,1-0.5,1-1C6.3,13.1,5.8,12.6,5.2,12.6L5.2,12.6z M9.4,12.6c-0.6,0-1,0.5-1,1.1s0.5,1,1.1,1c0.6,0,1-0.5,1-1
	C10.5,13.1,10,12.6,9.4,12.6L9.4,12.6z"/>
</svg>
