<?xml version="1.0" encoding="utf-8"?>
<!-- Generator: Adobe Illustrator 24.2.0, SVG Export Plug-In . SVG Version: 6.00 Build 0)  -->
<svg version="1.1" id="Шар_1" xmlns="http://www.w3.org/2000/svg" xmlns:xlink="http://www.w3.org/1999/xlink" x="0px" y="0px"
	 viewBox="0 0 46.2 33.6" style="enable-background:new 0 0 46.2 33.6;" xml:space="preserve">
<style type="text/css">
	.st0{fill-rule:evenodd;clip-rule:evenodd;fill:#CCCCCC;}
</style>
<path id="Paper_Dollars_1" class="st0" d="M24.6,22.2c-0.2-0.1-0.4-0.2-0.6-0.3c-0.2-0.1-0.3-0.1-0.5-0.2V25c0.4,0,0.8-0.2,1.1-0.4
	c0.4-0.3,0.5-0.8,0.5-1.3c0-0.2,0-0.5-0.2-0.7C24.9,22.5,24.8,22.3,24.6,22.2z M21.2,18.3c0,0.2,0,0.4,0.1,0.6
	c0.1,0.2,0.2,0.3,0.4,0.4c0.1,0.1,0.3,0.2,0.5,0.3c0.2,0.1,0.3,0.1,0.5,0.2v-2.9c-0.4,0-0.8,0.1-1.1,0.3
	C21.3,17.5,21.2,17.9,21.2,18.3z M26.5,24.5c-0.2,0.4-0.4,0.7-0.7,1c-0.3,0.3-0.7,0.5-1.1,0.6c-0.4,0.1-0.8,0.2-1.2,0.2v1h-0.8v-1
	c-0.4,0-0.9-0.1-1.3-0.3c-0.4-0.1-0.8-0.4-1.1-0.7c-0.3-0.3-0.5-0.6-0.7-1c-0.2-0.4-0.3-0.9-0.2-1.4H21c0,0.5,0.1,1,0.4,1.5
	c0.3,0.4,0.8,0.6,1.3,0.6v-3.4c-0.4-0.1-0.7-0.2-1-0.4c-0.4-0.1-0.7-0.3-1-0.6c-0.3-0.2-0.6-0.5-0.7-0.9c-0.2-0.4-0.3-0.9-0.3-1.3
	c0-0.4,0.1-0.8,0.3-1.2c0.2-0.3,0.4-0.6,0.7-0.9c0.3-0.2,0.7-0.4,1-0.5c0.4-0.1,0.7-0.2,1.1-0.2v-0.9h0.8v0.9c0.4,0,0.7,0.1,1.1,0.2
	c0.4,0.1,0.7,0.3,1,0.5c0.3,0.2,0.5,0.5,0.7,0.9c0.2,0.4,0.2,0.8,0.2,1.2h-1.6c0-0.4-0.1-0.8-0.4-1.1c-0.2-0.3-0.6-0.4-1-0.4v3
	c0.4,0.1,0.8,0.2,1.1,0.4c0.4,0.1,0.7,0.3,1.1,0.6c0.3,0.2,0.6,0.5,0.7,0.9c0.2,0.4,0.3,0.8,0.3,1.3C26.8,23.6,26.7,24.1,26.5,24.5
	L26.5,24.5z M23.1,12.6c-4.6,0-8.4,3.8-8.4,8.4c0,4.6,3.8,8.4,8.4,8.4c4.6,0,8.4-3.8,8.4-8.4c0,0,0,0,0,0
	C31.5,16.4,27.7,12.6,23.1,12.6z M11.5,12.6H9.4c-0.6,0-1.1,0.5-1.1,1.1c0,0.6,0.5,1,1.1,1.1h2.1c0.6,0,1.1-0.4,1.1-1.1
	C12.7,13,12.2,12.5,11.5,12.6L11.5,12.6z M36.7,27.3h-2.1c-0.6,0-1,0.5-1,1.1c0,0.6,0.5,1,1,1h2.1c0.6,0,1.2-0.4,1.2-1
	C37.9,27.7,37.4,27.2,36.7,27.3L36.7,27.3z M43,12.6c-0.6,0-1-0.5-1-1.1s0.5-1,1.1-1c0.6,0,1,0.5,1,1C44.1,12.1,43.6,12.6,43,12.6
	C43.1,12.6,43.1,12.6,43,12.6L43,12.6z M44.1,27.5c-0.3-0.1-0.7-0.2-1.1-0.2c-1.7,0-3.1,1.3-3.2,3c0,0.4,0.1,0.8,0.2,1.2h-34
	c0.6-1.6-0.2-3.4-1.9-4c-0.7-0.3-1.5-0.3-2.1,0v-13c0.3,0.1,0.7,0.2,1.1,0.2c1.7,0,3.2-1.4,3.2-3.2c0,0,0,0,0,0
	c0-0.4-0.1-0.7-0.2-1.1h34c-0.1,0.3-0.2,0.7-0.2,1.1c0,1.7,1.4,3.2,3.1,3.2c0,0,0,0,0,0c0.4,0,0.7-0.1,1.1-0.2L44.1,27.5L44.1,27.5z
	 M43,31.5c-0.6,0-1.1-0.5-1.1-1.1c0-0.6,0.5-1,1.1-1c0.6,0,1,0.5,1,1.1C44.1,31,43.6,31.5,43,31.5L43,31.5z M3.1,31.5
	c-0.6,0-1.1-0.5-1.1-1.1c0-0.6,0.5-1,1.1-1c0.6,0,1,0.5,1,1.1C4.2,31,3.7,31.5,3.1,31.5L3.1,31.5z M3.1,10.5c0.6,0,1,0.5,1,1.1
	s-0.5,1-1.1,1c-0.6,0-1-0.5-1-1C2.1,11,2.6,10.5,3.1,10.5C3.1,10.5,3.1,10.5,3.1,10.5L3.1,10.5z M44.1,8.4h-42C0.9,8.4,0,9.3,0,10.5
	v21c0,1.2,0.9,2.1,2.1,2.1h42c1.2,0,2.1-0.9,2.1-2.1v-21C46.2,9.3,45.3,8.4,44.1,8.4L44.1,8.4z M5.2,6.3h35.7c0.6,0,1.1-0.5,1.1-1
	c0-0.6-0.5-1.1-1-1.1c0,0,0,0,0,0H5.2C4.7,4,4.1,4.4,4,5s0.2,1.1,0.7,1.3C4.9,6.3,5.1,6.3,5.2,6.3L5.2,6.3z M9.4,2.1h27.3
	c0.6,0,1.1-0.5,1.1-1c0-0.6-0.5-1.1-1-1.1c0,0,0,0,0,0H9.4C8.9-0.1,8.3,0.3,8.3,0.9C8.2,1.5,8.6,2,9.2,2.1C9.3,2.1,9.4,2.1,9.4,2.1
	L9.4,2.1z"/>
</svg>
