<?xml version="1.0" encoding="utf-8"?>
<!-- Generator: Adobe Illustrator 24.2.0, SVG Export Plug-In . SVG Version: 6.00 Build 0)  -->
<svg version="1.1" id="Шар_1" xmlns="http://www.w3.org/2000/svg" xmlns:xlink="http://www.w3.org/1999/xlink" x="0px" y="0px"
	 viewBox="0 0 37.8 46.2" style="enable-background:new 0 0 37.8 46.2;" xml:space="preserve">
<style type="text/css">
	.st0{fill-rule:evenodd;clip-rule:evenodd;fill:#CCCCCC;}
</style>
<path id="Clipboard_2x.png" class="st0" d="M7.4,35.7h18.9c0.6,0,1-0.5,1-1.1c0-0.6-0.5-1-1-1H7.4c-0.6,0-1,0.5-1,1.1
	C6.3,35.2,6.8,35.7,7.4,35.7z M7.4,29.4h23.1c0.6,0,1-0.5,1-1.1c0-0.6-0.5-1-1-1H7.4c-0.6,0-1,0.5-1,1.1C6.3,28.9,6.8,29.4,7.4,29.4
	z M35.7,12.6H2.1V8.4h8.4c0,1.2,0.9,2.1,2.1,2.1h12.6c1.2,0,2.1-0.9,2.1-2.1h8.4V12.6z M35.7,44.1H2.1V14.7h33.6V44.1z M12.6,4.2
	h12.6v4.2H12.6V4.2z M35.7,6.3h-8.4V4.2c0-1.2-0.9-2.1-2.1-2.1H21C21,1,20.1,0,18.9,0c-1.2,0-2.1,0.9-2.1,2.1h-4.2
	c-1.2,0-2.1,0.9-2.1,2.1v2.1H2.1C0.9,6.3,0,7.3,0,8.4v35.7c0,1.2,0.9,2.1,2.1,2.1h33.6c1.2,0,2.1-0.9,2.1-2.1V8.4
	C37.8,7.3,36.9,6.3,35.7,6.3L35.7,6.3z M7.4,23.1H20c0.6,0,1.1-0.5,1.1-1c0-0.6-0.5-1.1-1-1.1c0,0,0,0,0,0H7.4
	c-0.6,0-1.1,0.5-1.1,1.1S6.8,23.1,7.4,23.1L7.4,23.1z"/>
</svg>
