<?xml version="1.0" encoding="utf-8"?>
<!-- Generator: Adobe Illustrator 24.2.0, SVG Export Plug-In . SVG Version: 6.00 Build 0)  -->
<svg version="1.1" id="Шар_1" xmlns="http://www.w3.org/2000/svg" xmlns:xlink="http://www.w3.org/1999/xlink" x="0px" y="0px"
	 viewBox="0 0 46.2 46.2" style="enable-background:new 0 0 46.2 46.2;" xml:space="preserve">
<style type="text/css">
	.st0{fill-rule:evenodd;clip-rule:evenodd;fill:#CCCCCC;}
</style>
<path id="Rocket" class="st0" d="M28.3,25.2c0.6,0,1-0.5,1-1.1c0-0.6-0.5-1-1-1c-0.6,0-1,0.5-1,1C27.3,24.7,27.8,25.2,28.3,25.2
	C28.3,25.2,28.3,25.2,28.3,25.2z M35.3,22.8c-0.4,0.4-1.1,1.1-1.8,1.9c-1.4,1.4-3.4,3.6-4.7,4.7l-12-12c1.1-1.2,3.3-3.3,4.7-4.7
	c0.8-0.8,1.5-1.4,1.9-1.8C29.1,5.2,40,2.1,44.1,2.1C44.1,5.5,41.2,16.8,35.3,22.8z M27.3,31.1c-0.7,2.6-1.7,5.1-2.9,7.4
	c-0.5-1.4-1.2-2.8-2.1-4.1c-0.4-0.6-1.1-1-1.8-1c-0.2,0-0.3,0-0.5,0.1c-0.4,0.1-0.8,0.1-1.2,0.2c-1.7-0.1-3.2-0.8-4.4-2
	c-1.6-1.4-2.3-3.5-1.8-5.6c0.2-0.9-0.2-1.8-0.9-2.3c-1.3-0.8-2.7-1.5-4.1-2.1c2.4-1.2,4.9-2.2,7.4-2.9c0.1,0,0.1,0,0.2-0.1L27.4,31
	C27.4,31,27.3,31.1,27.3,31.1L27.3,31.1z M45.8,0.3C45.3,0,44.7-0.1,44.1,0c-4.4,0-16,3.2-22.2,9.4c-1.5,1.5-6.3,5.9-7.4,7.4
	c-3.6,1-8.9,3-11.9,5.9c2.9,0.2,5.6,1.2,8,2.8c-0.6,2.8,0.3,5.7,2.4,7.6c1.5,1.6,3.6,2.6,5.8,2.6c0.6,0,1.2-0.1,1.7-0.2
	c1.6,2.4,2.6,5.1,2.8,8c3-2.9,4.9-8.2,5.9-11.9c1.5-1.1,6-6,7.4-7.4C44.2,16.9,47.3,1.8,45.8,0.3z M34.6,10.5c0.6,0,1,0.5,1,1.1
	c0,0.6-0.5,1-1,1c-0.6,0-1-0.5-1-1C33.6,11,34.1,10.5,34.6,10.5C34.6,10.5,34.6,10.5,34.6,10.5z M34.6,14.7c1.7,0,3.1-1.4,3.1-3.2
	s-1.4-3.2-3.2-3.2c-1.7,0-3.1,1.4-3.1,3.2C31.5,13.3,32.9,14.7,34.6,14.7C34.6,14.7,34.6,14.7,34.6,14.7L34.6,14.7z M25.2,22
	c0.6,0,1-0.5,1-1.1c0-0.6-0.5-1-1-1c-0.6,0-1,0.5-1,1C24.1,21.6,24.6,22,25.2,22C25.2,22,25.2,22,25.2,22L25.2,22z M22,16.8
	c-0.6,0-1,0.5-1,1.1c0,0.6,0.5,1,1,1c0.6,0,1-0.5,1-1C23.1,17.3,22.6,16.8,22,16.8L22,16.8z M3.8,42.4l3.8-9.5
	c0.5,1,1.2,1.9,1.9,2.7c1.1,1.2,2.4,2.3,3.8,3.1L3.8,42.4z M8.1,25.8L0,46.2L20.4,38c-0.4,0-0.7,0.1-1.1,0.1
	C13.1,38.1,7.4,32.1,8.1,25.8L8.1,25.8z"/>
</svg>
